<?xml version="1.0" encoding="utf-8"?>
<!-- Generator: Adobe Illustrator 27.6.1, SVG Export Plug-In . SVG Version: 6.00 Build 0)  -->
<svg version="1.1" id="レイヤー_1" xmlns="http://www.w3.org/2000/svg" xmlns:xlink="http://www.w3.org/1999/xlink" x="0px"
	 y="0px" viewBox="0 0 750 750" style="enable-background:new 0 0 750 750;" xml:space="preserve">
<style type="text/css">
	.st0{fill:#070001;}
	.st1{fill:#FFFFFF;stroke:#040000;stroke-miterlimit:10;}
	.st2{fill:#FFFFFF;}
	.st3{fill:#040000;}
</style>
<path class="st0" d="M93.31,538.42c10.44-130.45,45.58-275.44,45.58-283.82c0-32.37-47.52-53.94-47.52-122.34
	c0-37.2,17.42-65.36,52.89-65.36s56.58,23.65,66.82,31.16c10.24,7.51,35.4,23.45,69.27,24.23c19.8,0.45,59.73-11.6,97.78-11.6
	l0.3,531.61c0,0-78.26-6.57-158.93-35.85C138.85,577.16,93.31,538.42,93.31,538.42z"/>
<path class="st0" d="M662.97,538.42c-10.44-130.45-45.58-275.44-45.58-283.82c0-32.37,47.52-53.94,47.52-122.34
	c0-37.2-17.42-65.36-52.89-65.36s-56.58,23.65-66.82,31.16c-10.24,7.51-35.4,23.45-69.27,24.23c-19.8,0.45-59.73-11.6-97.78-11.6
	v531.61c0,0,77.96-6.57,158.63-35.85C617.43,577.16,662.97,538.42,662.97,538.42z"/>
<path class="st1" d="M211.09,98.05c15.09,9.5,35.4,23.45,69.27,24.23"/>
<path class="st1" d="M221.3,673.36"/>
<path class="st2" d="M377.49,467.26c-50.1,0-112.34-2.3-112.34-91.08c0-113.84,82.72-169.99,112.65-169.99 M377.49,467.26
	c50.1,0,113.01-2.17,113.01-90.95c0-113.84-82.77-170.12-112.7-170.12"/>
<path class="st3" d="M378.5,373.64c0,0-59.92-18.34-59.92-61.86c0-34.59,30.73-32.11,59.92-32.06 M378.5,373.64
	c0,0,60.38-18.34,60.38-61.86c0-34.59-30.97-32.11-60.38-32.06"/>
</svg>
